<svg xmlns="http://www.w3.org/2000/svg" viewBox="0 0 1080 1920" role="img" aria-label="Caption style for short-form">
  <rect width="1080" height="1920" fill="#F1EFE9"/>

  <!-- Hairline structural rules -->
  <line x1="60" y1="160" x2="1020" y2="160" stroke="#1A1F1B" stroke-opacity="0.10" stroke-width="1"/>
  <line x1="60" y1="1760" x2="1020" y2="1760" stroke="#1A1F1B" stroke-opacity="0.10" stroke-width="1"/>

  <!-- Top mono receipt -->
  <text x="60"  y="120" font-family="JetBrains Mono, Menlo, monospace" font-size="22" fill="#1A1F1B" letter-spacing="4">RANK ON MAPS · REEL 022</text>
  <text x="1020" y="120" text-anchor="end" font-family="JetBrains Mono, Menlo, monospace" font-size="22" fill="#5C6A5F" letter-spacing="4">0:08 / 0:24</text>

  <!-- Caption (Inter Tight 900 ALL-CAPS, sage emphasis with underline) -->
  <g font-family="Helvetica, Arial, sans-serif" font-weight="900" letter-spacing="-3">
    <text x="60" y="800"  font-size="130" fill="#1A1F1B">YOU DON'T</text>
    <text x="60" y="940"  font-size="130" fill="#1A1F1B">LOSE TO</text>
    <text x="60" y="1080" font-size="130" fill="#1F4D3C">COMPETITORS.</text>
    <line x1="60" y1="1095" x2="900" y2="1095" stroke="#1F4D3C" stroke-width="6"/>
    <text x="60" y="1240" font-size="130" fill="#1A1F1B">YOU LOSE</text>
    <text x="60" y="1380" font-size="130" fill="#1A1F1B">TO SILENCE.</text>
  </g>

  <!-- Pin watermark, bottom right -->
  <g transform="translate(900 1740) scale(0.14)" opacity="0.55">
    <path fill="#1A1F1B" d="M256 56c-66.3 0-120 53.7-120 120 0 24 7 46.4 19.2 65.2L256 388l100.8-146.8C369 222.4 376 200 376 176c0-66.3-53.7-120-120-120zm0 162c-23.2 0-42-18.8-42-42s18.8-42 42-42 42 18.8 42 42-18.8 42-42 42z"/>
  </g>

  <!-- Bottom mono receipt -->
  <text x="60"  y="1820" font-family="JetBrains Mono, Menlo, monospace" font-size="20" fill="#1A1F1B" letter-spacing="4">↗ RANKONMAPS.IO</text>
  <text x="1020" y="1820" text-anchor="end" font-family="JetBrains Mono, Menlo, monospace" font-size="20" fill="#5C6A5F" letter-spacing="4">FIG. 022</text>
</svg>
