<svg xmlns="http://www.w3.org/2000/svg" viewBox="0 0 1080 1920" role="img" aria-label="Podcast clip frame, 9:16">
  <defs>
    <linearGradient id="pbg" x1="0" y1="0" x2="0" y2="1">
      <stop offset="0%" stop-color="#1F4D3C"/>
      <stop offset="100%" stop-color="#0F2E22"/>
    </linearGradient>
  </defs>
  <rect width="1080" height="1920" fill="url(#pbg)"/>

  <!-- Mono receipt top -->
  <text x="60" y="160" font-family="JetBrains Mono, Menlo, monospace"
        font-size="28" fill="#D9D4C5" letter-spacing="6">EP.014  /  CLIP 03</text>
  <text x="1020" y="160" text-anchor="end" font-family="JetBrains Mono, Menlo, monospace"
        font-size="22" fill="#D9D4C5" fill-opacity="0.7" letter-spacing="6">00:42 / 03:18</text>

  <!-- Speaker video well -->
  <rect x="60" y="220" width="960" height="960" rx="24" fill="#0F1418"/>
  <text x="540" y="710" text-anchor="middle"
        font-family="Helvetica, Arial, sans-serif" font-size="22"
        fill="#FAF8F2" fill-opacity="0.4" letter-spacing="6">VIDEO HERE</text>

  <!-- Caption block (Inter Tight 900 ALL-CAPS) -->
  <g font-family="Helvetica, Arial, sans-serif" font-weight="900" letter-spacing="-3">
    <text x="60" y="1320" font-size="120" fill="#FAF8F2">"YOU DON'T</text>
    <text x="60" y="1450" font-size="120" fill="#FAF8F2">RANK BECAUSE</text>
    <text x="60" y="1580" font-size="120" fill="#D9D4C5">GOOGLE FORGOT</text>
    <text x="60" y="1710" font-size="120" fill="#FAF8F2">YOU EXIST."</text>
  </g>

  <!-- Animated waveform mock (sage soft) -->
  <g transform="translate(60 1780)" fill="#3A6E5A">
    <rect x="0"   y="20" width="6" height="40"/>
    <rect x="14"  y="0"  width="6" height="60"/>
    <rect x="28"  y="14" width="6" height="46"/>
    <rect x="42"  y="6"  width="6" height="54"/>
    <rect x="56"  y="22" width="6" height="38"/>
    <rect x="70"  y="0"  width="6" height="60"/>
    <rect x="84"  y="10" width="6" height="50"/>
    <rect x="98"  y="20" width="6" height="40"/>
    <rect x="112" y="2"  width="6" height="58"/>
    <rect x="126" y="14" width="6" height="46"/>
    <rect x="140" y="22" width="6" height="38"/>
    <rect x="154" y="0"  width="6" height="60"/>
    <rect x="168" y="18" width="6" height="42"/>
    <rect x="182" y="6"  width="6" height="54"/>
    <rect x="196" y="22" width="6" height="38"/>
    <rect x="210" y="0"  width="6" height="60"/>
    <rect x="224" y="14" width="6" height="46"/>
    <rect x="238" y="20" width="6" height="40"/>
  </g>

  <!-- Brand lock bottom-right -->
  <g transform="translate(820 1820) scale(0.18)">
    <path fill="#FAF8F2" d="M256 56c-66.3 0-120 53.7-120 120 0 24 7 46.4 19.2 65.2L256 388l100.8-146.8C369 222.4 376 200 376 176c0-66.3-53.7-120-120-120zm0 162c-23.2 0-42-18.8-42-42s18.8-42 42-42 42 18.8 42 42-18.8 42-42 42z"/>
  </g>
  <text x="900" y="1860" font-family="JetBrains Mono, Menlo, monospace" font-weight="700"
        font-size="20" fill="#FAF8F2" letter-spacing="3">RANKONMAPS.IO</text>
</svg>
