<svg xmlns="http://www.w3.org/2000/svg" viewBox="0 0 1920 1080" role="img" aria-label="YouTube title card, 16:9">
  <rect width="1920" height="1080" fill="#FAF8F2"/>

  <!-- Hairline top border -->
  <line x1="80" y1="80" x2="1840" y2="80" stroke="#1A1F1B" stroke-opacity="0.15" stroke-width="1"/>
  <text x="80"  y="64"  font-family="JetBrains Mono, Menlo, monospace" font-size="20" fill="#1A1F1B" letter-spacing="6">RANK ON MAPS · EPISODE 014</text>
  <text x="1840" y="64" text-anchor="end" font-family="JetBrains Mono, Menlo, monospace" font-size="20" fill="#5C6A5F" letter-spacing="6">04:38 · 2026</text>

  <!-- Pin mark -->
  <g transform="translate(80 160) scale(0.30)">
    <path fill="#1F4D3C" d="M256 56c-66.3 0-120 53.7-120 120 0 24 7 46.4 19.2 65.2L256 388l100.8-146.8C369 222.4 376 200 376 176c0-66.3-53.7-120-120-120zm0 162c-23.2 0-42-18.8-42-42s18.8-42 42-42 42 18.8 42 42-18.8 42-42 42z"/>
  </g>

  <!-- Headline (heavy condensed display) -->
  <g font-family="Helvetica, Arial, sans-serif" fill="#1A1F1B" font-weight="900">
    <text x="80" y="540" font-size="200" letter-spacing="-8">WHY YOUR MAPS</text>
    <text x="80" y="730" font-size="200" letter-spacing="-8">LISTING IS <tspan fill="#1F4D3C">DEAD</tspan>.</text>
  </g>

  <!-- Sub line -->
  <text x="80" y="830" font-family="Helvetica, Arial, sans-serif" font-weight="500"
        font-size="32" fill="#5C6A5F" letter-spacing="2">A 4-MINUTE TEARDOWN WITH A REAL CLIENT ACCOUNT.</text>

  <!-- Hairline bottom border -->
  <line x1="80" y1="1000" x2="1840" y2="1000" stroke="#1A1F1B" stroke-opacity="0.15" stroke-width="1"/>
  <text x="80"   y="1040" font-family="JetBrains Mono, Menlo, monospace" font-size="20" fill="#1A1F1B" letter-spacing="4">↗ RANKONMAPS.IO</text>
  <text x="1840" y="1040" text-anchor="end" font-family="JetBrains Mono, Menlo, monospace" font-size="20" fill="#5C6A5F" letter-spacing="4">FIG. 014 / 03 OF 12</text>
</svg>
